# xmcd CD database file
#
# Track frame offsets:
#	150
#	12891
#	25479
#	37665
#	52105
#	64672
#	78468
#	94784
#	109400
#	123778
#	134242
#	148927
#	162037
#	174859
#	189343
#	202434
#	214828
#	229215
#	240696
#	252200
#
# Disc length: 3535 seconds
#
# Revision: 0
# Processed by: cddbd v1.5.2PL0 Copyright (c) Steve Scherf et al.
# Submitted via: CDex 1.51
#
DISCID=210dcd14
DTITLE=Nat King Cole - Encore Of Golden Hits
DYEAR=2007
DGENRE=Jazz
TTITLE0=Night lights
TTITLE1=It could happen to you
TTITLE2=Love is a many splendoured thing
TTITLE3=Unforgettable
TTITLE4=Let's fall in love
TTITLE5=If I may
TTITLE6=There will never be another you
TTITLE7=Can't I
TTITLE8=Teach me tonight
TTITLE9=To the ends of the earth
TTITLE10=Mona Lisa
TTITLE11=Somebody loves me
TTITLE12=Darling ji vous aime beaucoup
TTITLE13=Too young
TTITLE14=Smile
TTITLE15=Pretend
TTITLE16=Because your mine
TTITLE17=A blossom fell
TTITLE18=The sand and the sea
TTITLE19=Too young too go steady
EXTD=YEAR: 2007
EXTT0=
EXTT1=
EXTT2=
EXTT3=
EXTT4=
EXTT5=
EXTT6=
EXTT7=
EXTT8=
EXTT9=
EXTT10=
EXTT11=
EXTT12=
EXTT13=
EXTT14=
EXTT15=
EXTT16=
EXTT17=
EXTT18=
EXTT19=
PLAYORDER=
